<svg width="507" height="376" viewBox="0 0 507 376" xmlns="http://www.w3.org/2000/svg"><title>Group</title><g fill="#FFFFFF" fill-rule="evenodd"><path d="M180.767 307.466c0-15.854.002-31.707-.002-47.56-.002-4.733-.706-5.664-5.31-7.073-51.602-15.786-103.198-31.59-154.818-47.314-3.576-1.09-5.32-2.992-5.638-6.8-1.457-17.39-3.104-34.764-4.704-52.143-1.74-18.887-3.523-37.767-5.248-56.654-1.515-16.577-2.974-33.16-4.465-49.74-.136-1.505-.35-3.005-.49-4.513-.415-4.455.468-5.8 4.696-7.114 15.056-4.675 30.117-9.334 45.173-14.01C64.536 10.02 79.103 5.485 93.673.944c5.262-1.638 5.948-1.31 6.498 4.223 1.18 11.845 2.19 23.708 3.277 35.562 1.346 14.666 2.707 29.332 4.05 44 1.094 11.954 2.222 23.908 3.233 35.868.4 4.734 1.286 6.018 5.983 7.455 37.112 11.342 74.207 22.74 111.372 33.91 2.91.875 6.538.947 9.437.078 37.455-11.247 74.836-22.742 112.25-34.133 3.172-.965 4.876-2.717 5.18-6.172 1.94-22.108 4.004-44.205 6.045-66.305 1.584-17.178 3.19-34.352 4.79-51.53.304-3.272 1.655-4.054 5.317-2.937 13.63 4.156 27.252 8.334 40.874 12.52 16.326 5.014 32.648 10.043 48.97 15.066 4.282 1.32 5.072 2.286 4.68 6.748-1.518 17.387-3.133 34.764-4.698 52.147-1.303 14.47-2.57 28.942-3.884 43.408-1.314 14.468-2.678 28.93-4 43.397-.708 7.736-1.453 15.47-2.04 23.215-.41 5.408-1.195 6.585-6.34 8.16a1387894.63 1387894.63 0 0 1-154.242 47.145c-5.25 1.605-5.945 2.495-5.945 7.905-.01 31.404-.007 62.807-.012 94.21 0 5.34-.592 6.14-5.725 7.75-13.693 4.287-27.34 8.73-41.12 12.722-3.015.873-6.72.86-9.736-.014-14.07-4.078-28.013-8.594-41.997-12.966-4.083-1.277-5.12-2.72-5.12-7.043-.004-15.956-.002-31.91-.003-47.864M466.927 338.157c2.968 0 5.597.022 8.223-.003 10.793-.104 18.84-9.556 16.984-20.142-2.342-13.35-12.45-16.803-25.207-14.61v34.755zm-13.963-17.62c0-8.887-.006-17.774.002-26.66.005-3.833.233-4.096 4.19-4.043 7.807.105 15.65-.19 23.402.526 14.953 1.378 26.67 15.425 26.403 30.933-.256 15.016-12.52 28.535-27.308 29.552-7.877.54-15.812.22-23.718.39-2.572.055-3.005-1.298-2.994-3.43.055-9.09.024-18.18.024-27.268z"/><path d="M357.746 308.525c3.395-4.957 6.865-9.54 9.78-14.452 2.016-3.402 4.447-4.883 8.355-4.293 1.685.254 3.454-.09 5.158.09 1.107.118 2.44.433 3.133 1.165.338.356-.36 2-.922 2.84-5.714 8.56-11.547 17.04-17.203 25.64-.872 1.325-1.4 3.122-1.427 4.713a705.403 705.403 0 0 0-.022 23.604c.04 2.486-.805 3.525-3.316 3.405a77.777 77.777 0 0 0-7.292-.007c-2.454.113-3.433-.808-3.394-3.345.115-7.766.137-15.537-.03-23.3-.038-1.785-.6-3.79-1.56-5.284-5.458-8.483-11.137-16.826-16.664-25.266-.608-.925-.727-2.166-1.073-3.26 1.116-.318 2.215-.712 3.35-.94 7.65-1.543 12.824 1.32 16.197 8.377 1.712 3.58 4.44 6.676 6.932 10.315M413.85 338.22h14.415c8.116 0 8.116 0 8.114 8.218 0 .707-.05 1.418.008 2.12.152 1.79-.662 2.64-2.448 2.64-10.543-.005-21.088 0-31.632-.004-2.085 0-2.422-1.314-2.41-3.044.038-6.258.014-12.516.014-18.774-.002-11.91.078-23.822-.06-35.73-.03-2.94.96-4.062 3.87-3.855 2.22.16 4.463.13 6.687.005 2.664-.15 3.507.997 3.487 3.594-.094 13.726-.044 27.454-.046 41.18v3.65"/></g></svg>
